<svg width="800" height="420" viewBox="0 0 800 420" fill="none" xmlns="http://www.w3.org/2000/svg">
  <defs>
    <linearGradient id="bg" x1="0" y1="0" x2="800" y2="420" gradientUnits="userSpaceOnUse">
      <stop stop-color="#C98559"/>
      <stop offset="1" stop-color="#F4C39B"/>
    </linearGradient>
  </defs>
  <rect width="800" height="420" fill="url(#bg)"/>
  <ellipse cx="655" cy="90" rx="165" ry="110" fill="#F6D3B3" fill-opacity="0.45"/>
  <ellipse cx="155" cy="330" rx="185" ry="120" fill="#A85F38" fill-opacity="0.18"/>
  <rect x="110" y="76" width="330" height="220" rx="26" fill="#FFF8F0" fill-opacity="0.96"/>
  <rect x="138" y="104" width="274" height="16" rx="8" fill="#D89A72"/>
  <rect x="138" y="136" width="144" height="12" rx="6" fill="#EFC2A4"/>
  <rect x="138" y="168" width="102" height="86" rx="18" fill="#F7D8BE"/>
  <rect x="254" y="168" width="158" height="38" rx="16" fill="#EAB48E"/>
  <rect x="254" y="216" width="158" height="38" rx="16" fill="#D88C60"/>
  <circle cx="620" cy="165" r="58" fill="#6A3925"/>
  <rect x="536" y="220" width="190" height="120" rx="28" fill="#8B4E31"/>
  <circle cx="544" cy="250" r="22" fill="#FFD7B8"/>
  <circle cx="684" cy="246" r="25" fill="#FFD7B8"/>
  <rect x="562" y="268" width="125" height="14" rx="7" fill="#F7D8BE"/>
  <rect x="562" y="294" width="92" height="14" rx="7" fill="#EAB48E"/>
</svg>
