<svg width="800" height="420" viewBox="0 0 800 420" fill="none" xmlns="http://www.w3.org/2000/svg">
  <defs>
    <linearGradient id="bg" x1="0" y1="0" x2="800" y2="420" gradientUnits="userSpaceOnUse">
      <stop stop-color="#2E7FEF"/>
      <stop offset="1" stop-color="#70C7F1"/>
    </linearGradient>
  </defs>
  <rect width="800" height="420" fill="url(#bg)"/>
  <ellipse cx="652" cy="82" rx="182" ry="128" fill="#9EDDFB" fill-opacity="0.32"/>
  <ellipse cx="155" cy="335" rx="224" ry="134" fill="#0B3E96" fill-opacity="0.28"/>
  <rect x="112" y="106" width="258" height="190" rx="30" fill="#FFFFFF" fill-opacity="0.14"/>
  <rect x="146" y="136" width="190" height="14" rx="7" fill="#EAF8FF"/>
  <rect x="146" y="166" width="126" height="12" rx="6" fill="#B8E6FF"/>
  <path d="M146 228C178 196 213 200 239 213C261 224 288 251 332 215" stroke="#F3FBFF" stroke-width="8" stroke-linecap="round"/>
  <circle cx="146" cy="228" r="10" fill="#F3FBFF"/>
  <circle cx="239" cy="213" r="10" fill="#F3FBFF"/>
  <circle cx="332" cy="215" r="10" fill="#F3FBFF"/>
  <circle cx="560" cy="194" r="84" fill="#0D4EA7" fill-opacity="0.55"/>
  <circle cx="560" cy="194" r="46" stroke="#DDF6FF" stroke-width="4"/>
  <circle cx="560" cy="194" r="12" fill="#DDF6FF"/>
  <path d="M560 108V280" stroke="#DDF6FF" stroke-opacity="0.5" stroke-width="2"/>
  <path d="M474 194H646" stroke="#DDF6FF" stroke-opacity="0.5" stroke-width="2"/>
</svg>
